<mxfile host="app.diagrams.net" agent="Mozilla/5.0 (Macintosh; Intel Mac OS X 10_15_7) AppleWebKit/537.36 (KHTML, like Gecko) Chrome/135.0.0.0 Safari/537.36" version="26.2.15">
  <diagram name="Page-1" id="tubGMbky3gx9UXj9urqt">
    <mxGraphModel dx="946" dy="586" grid="1" gridSize="10" guides="1" tooltips="1" connect="1" arrows="1" fold="1" page="1" pageScale="1" pageWidth="827" pageHeight="1169" math="0" shadow="0">
      <root>
        <mxCell id="0" />
        <mxCell id="1" parent="0" />
        <mxCell id="4vt4gDCJGikrpxqC6eB1-1" value="" style="ellipse;whiteSpace=wrap;html=1;aspect=fixed;fillColor=none;" parent="1" vertex="1">
          <mxGeometry x="80" y="80" width="190" height="190" as="geometry" />
        </mxCell>
        <mxCell id="4vt4gDCJGikrpxqC6eB1-2" value="" style="endArrow=none;html=1;rounded=0;exitX=0.19;exitY=0.896;exitDx=0;exitDy=0;exitPerimeter=0;startArrow=oval;startFill=1;entryX=0.197;entryY=0.108;entryDx=0;entryDy=0;entryPerimeter=0;" parent="1" source="4vt4gDCJGikrpxqC6eB1-1" target="4vt4gDCJGikrpxqC6eB1-1" edge="1">
          <mxGeometry width="50" height="50" relative="1" as="geometry">
            <mxPoint x="100" y="170" as="sourcePoint" />
            <mxPoint x="100" y="90" as="targetPoint" />
          </mxGeometry>
        </mxCell>
        <mxCell id="4vt4gDCJGikrpxqC6eB1-7" value="e" style="edgeLabel;html=1;align=center;verticalAlign=middle;resizable=0;points=[];fontSize=17;" parent="4vt4gDCJGikrpxqC6eB1-2" vertex="1" connectable="0">
          <mxGeometry x="0.0389" relative="1" as="geometry">
            <mxPoint x="60" y="-2" as="offset" />
          </mxGeometry>
        </mxCell>
        <mxCell id="4vt4gDCJGikrpxqC6eB1-3" value="" style="endArrow=oval;html=1;rounded=0;entryX=0.735;entryY=0.057;entryDx=0;entryDy=0;entryPerimeter=0;startArrow=oval;startFill=1;endFill=1;exitX=0.196;exitY=0.105;exitDx=0;exitDy=0;exitPerimeter=0;" parent="1" source="4vt4gDCJGikrpxqC6eB1-1" target="4vt4gDCJGikrpxqC6eB1-1" edge="1">
          <mxGeometry width="50" height="50" relative="1" as="geometry">
            <mxPoint x="100" y="90" as="sourcePoint" />
            <mxPoint x="240" y="120" as="targetPoint" />
          </mxGeometry>
        </mxCell>
        <mxCell id="4vt4gDCJGikrpxqC6eB1-4" value="" style="endArrow=none;html=1;rounded=0;exitX=0.191;exitY=0.891;exitDx=0;exitDy=0;exitPerimeter=0;entryX=0.73;entryY=0.066;entryDx=0;entryDy=0;entryPerimeter=0;" parent="1" source="4vt4gDCJGikrpxqC6eB1-1" target="4vt4gDCJGikrpxqC6eB1-1" edge="1">
          <mxGeometry width="50" height="50" relative="1" as="geometry">
            <mxPoint x="190" y="170" as="sourcePoint" />
            <mxPoint x="240" y="120" as="targetPoint" />
          </mxGeometry>
        </mxCell>
        <mxCell id="4vt4gDCJGikrpxqC6eB1-5" value="" style="endArrow=none;html=1;rounded=0;entryX=0.732;entryY=0.062;entryDx=0;entryDy=0;entryPerimeter=0;" parent="1" target="4vt4gDCJGikrpxqC6eB1-1" edge="1">
          <mxGeometry width="50" height="50" relative="1" as="geometry">
            <mxPoint x="250" y="180" as="sourcePoint" />
            <mxPoint x="100" y="150" as="targetPoint" />
          </mxGeometry>
        </mxCell>
        <mxCell id="4vt4gDCJGikrpxqC6eB1-6" value="" style="endArrow=none;html=1;rounded=0;entryX=0.18;entryY=0.891;entryDx=0;entryDy=0;entryPerimeter=0;startArrow=oval;startFill=1;" parent="1" target="4vt4gDCJGikrpxqC6eB1-1" edge="1">
          <mxGeometry width="50" height="50" relative="1" as="geometry">
            <mxPoint x="250" y="180" as="sourcePoint" />
            <mxPoint x="130" y="120" as="targetPoint" />
          </mxGeometry>
        </mxCell>
        <mxCell id="4vt4gDCJGikrpxqC6eB1-34" value="&lt;font style=&quot;font-size: 24px;&quot;&gt;(a)&lt;/font&gt;" style="text;html=1;align=center;verticalAlign=middle;whiteSpace=wrap;rounded=0;" parent="1" vertex="1">
          <mxGeometry x="130" y="290" width="60" height="30" as="geometry" />
        </mxCell>
        <mxCell id="EWtLF_SIJgmkEhDglYgc-1" value="&lt;font style=&quot;font-size: 17px;&quot;&gt;v&lt;sub&gt;1&lt;/sub&gt;&lt;/font&gt;" style="text;html=1;align=center;verticalAlign=middle;resizable=0;points=[];autosize=1;strokeColor=none;fillColor=none;" vertex="1" parent="1">
          <mxGeometry x="90" y="63" width="40" height="40" as="geometry" />
        </mxCell>
        <mxCell id="EWtLF_SIJgmkEhDglYgc-4" value="&lt;font style=&quot;font-size: 17px;&quot;&gt;v&lt;/font&gt;&lt;font style=&quot;font-size: 14.1667px;&quot;&gt;&lt;sub&gt;2&lt;/sub&gt;&lt;/font&gt;" style="text;html=1;align=center;verticalAlign=middle;resizable=0;points=[];autosize=1;strokeColor=none;fillColor=none;" vertex="1" parent="1">
          <mxGeometry x="210" y="55" width="40" height="40" as="geometry" />
        </mxCell>
        <mxCell id="EWtLF_SIJgmkEhDglYgc-7" value="&lt;font style=&quot;font-size: 17px;&quot;&gt;v&lt;/font&gt;&lt;font style=&quot;font-size: 14.1667px;&quot;&gt;&lt;sub&gt;3&lt;/sub&gt;&lt;/font&gt;" style="text;html=1;align=center;verticalAlign=middle;resizable=0;points=[];autosize=1;strokeColor=none;fillColor=none;" vertex="1" parent="1">
          <mxGeometry x="231" y="175" width="40" height="40" as="geometry" />
        </mxCell>
        <mxCell id="EWtLF_SIJgmkEhDglYgc-9" value="&lt;font style=&quot;font-size: 17px;&quot;&gt;v&lt;/font&gt;&lt;font style=&quot;font-size: 14.1667px;&quot;&gt;&lt;sub&gt;3&lt;/sub&gt;&lt;/font&gt;" style="text;html=1;align=center;verticalAlign=middle;resizable=0;points=[];autosize=1;strokeColor=none;fillColor=none;" vertex="1" parent="1">
          <mxGeometry x="745" y="160" width="40" height="40" as="geometry" />
        </mxCell>
        <mxCell id="EWtLF_SIJgmkEhDglYgc-10" value="&lt;font style=&quot;font-size: 17px;&quot;&gt;v&lt;/font&gt;&lt;font style=&quot;font-size: 14.1667px;&quot;&gt;&lt;sub&gt;4&lt;/sub&gt;&lt;/font&gt;" style="text;html=1;align=center;verticalAlign=middle;resizable=0;points=[];autosize=1;strokeColor=none;fillColor=none;" vertex="1" parent="1">
          <mxGeometry x="82" y="240" width="40" height="40" as="geometry" />
        </mxCell>
        <mxCell id="EWtLF_SIJgmkEhDglYgc-13" value="" style="group" vertex="1" connectable="0" parent="1">
          <mxGeometry x="316" y="64" width="213" height="256" as="geometry" />
        </mxCell>
        <mxCell id="EWtLF_SIJgmkEhDglYgc-11" value="&lt;font style=&quot;font-size: 17px;&quot;&gt;v&lt;/font&gt;&lt;font style=&quot;font-size: 14.1667px;&quot;&gt;&lt;sub&gt;4&lt;/sub&gt;&lt;/font&gt;" style="text;html=1;align=center;verticalAlign=middle;resizable=0;points=[];autosize=1;strokeColor=none;fillColor=none;" vertex="1" parent="EWtLF_SIJgmkEhDglYgc-13">
          <mxGeometry y="176" width="40" height="40" as="geometry" />
        </mxCell>
        <mxCell id="EWtLF_SIJgmkEhDglYgc-15" value="" style="group" vertex="1" connectable="0" parent="EWtLF_SIJgmkEhDglYgc-13">
          <mxGeometry x="15" width="200" height="256" as="geometry" />
        </mxCell>
        <mxCell id="4vt4gDCJGikrpxqC6eB1-22" value="" style="group" parent="EWtLF_SIJgmkEhDglYgc-15" vertex="1" connectable="0">
          <mxGeometry x="24" y="26" width="150" height="180" as="geometry" />
        </mxCell>
        <mxCell id="4vt4gDCJGikrpxqC6eB1-8" value="" style="ellipse;whiteSpace=wrap;html=1;aspect=fixed;fillColor=none;" parent="4vt4gDCJGikrpxqC6eB1-22" vertex="1">
          <mxGeometry x="-19" y="-14" width="158" height="158" as="geometry" />
        </mxCell>
        <mxCell id="4vt4gDCJGikrpxqC6eB1-16" value="" style="endArrow=none;html=1;rounded=0;exitX=0.19;exitY=0.896;exitDx=0;exitDy=0;exitPerimeter=0;startArrow=oval;startFill=1;entryX=0.197;entryY=0.108;entryDx=0;entryDy=0;entryPerimeter=0;" parent="4vt4gDCJGikrpxqC6eB1-22" edge="1">
          <mxGeometry width="50" height="50" relative="1" as="geometry">
            <mxPoint x="2" y="159" as="sourcePoint" />
            <mxPoint x="3" y="10" as="targetPoint" />
          </mxGeometry>
        </mxCell>
        <mxCell id="4vt4gDCJGikrpxqC6eB1-17" value="e" style="edgeLabel;html=1;align=center;verticalAlign=middle;resizable=0;points=[];fontSize=17;" parent="4vt4gDCJGikrpxqC6eB1-16" vertex="1" connectable="0">
          <mxGeometry x="0.0389" relative="1" as="geometry">
            <mxPoint x="58" y="-23" as="offset" />
          </mxGeometry>
        </mxCell>
        <mxCell id="4vt4gDCJGikrpxqC6eB1-18" value="" style="endArrow=oval;html=1;rounded=0;entryX=0.735;entryY=0.057;entryDx=0;entryDy=0;entryPerimeter=0;startArrow=oval;startFill=1;endFill=1;exitX=0.196;exitY=0.105;exitDx=0;exitDy=0;exitPerimeter=0;" parent="4vt4gDCJGikrpxqC6eB1-22" edge="1">
          <mxGeometry width="50" height="50" relative="1" as="geometry">
            <mxPoint x="3" y="9" as="sourcePoint" />
            <mxPoint x="106" as="targetPoint" />
          </mxGeometry>
        </mxCell>
        <mxCell id="4vt4gDCJGikrpxqC6eB1-19" value="" style="endArrow=none;html=1;rounded=0;entryX=0.732;entryY=0.062;entryDx=0;entryDy=0;entryPerimeter=0;" parent="4vt4gDCJGikrpxqC6eB1-22" edge="1">
          <mxGeometry width="50" height="50" relative="1" as="geometry">
            <mxPoint x="136" y="89" as="sourcePoint" />
            <mxPoint x="105" y="1" as="targetPoint" />
          </mxGeometry>
        </mxCell>
        <mxCell id="4vt4gDCJGikrpxqC6eB1-20" value="" style="endArrow=none;html=1;rounded=0;startArrow=oval;startFill=1;" parent="4vt4gDCJGikrpxqC6eB1-22" edge="1">
          <mxGeometry width="50" height="50" relative="1" as="geometry">
            <mxPoint x="136" y="89" as="sourcePoint" />
            <mxPoint y="160" as="targetPoint" />
          </mxGeometry>
        </mxCell>
        <mxCell id="4vt4gDCJGikrpxqC6eB1-21" value="" style="endArrow=none;html=1;rounded=0;dashed=1;" parent="4vt4gDCJGikrpxqC6eB1-22" edge="1">
          <mxGeometry width="50" height="50" relative="1" as="geometry">
            <mxPoint y="9" as="sourcePoint" />
            <mxPoint x="136" y="89" as="targetPoint" />
          </mxGeometry>
        </mxCell>
        <mxCell id="EWtLF_SIJgmkEhDglYgc-5" value="&lt;font style=&quot;font-size: 17px;&quot;&gt;v&lt;/font&gt;&lt;font style=&quot;font-size: 14.1667px;&quot;&gt;&lt;sub&gt;2&lt;/sub&gt;&lt;/font&gt;" style="text;html=1;align=center;verticalAlign=middle;resizable=0;points=[];autosize=1;strokeColor=none;fillColor=none;" vertex="1" parent="4vt4gDCJGikrpxqC6eB1-22">
          <mxGeometry x="98" y="-34" width="40" height="40" as="geometry" />
        </mxCell>
        <mxCell id="4vt4gDCJGikrpxqC6eB1-43" value="&lt;font style=&quot;font-size: 24px;&quot;&gt;(b&lt;/font&gt;&lt;span style=&quot;font-size: 24px; background-color: transparent; color: light-dark(rgb(0, 0, 0), rgb(255, 255, 255));&quot;&gt;)&lt;/span&gt;" style="text;html=1;align=center;verticalAlign=middle;whiteSpace=wrap;rounded=0;" parent="EWtLF_SIJgmkEhDglYgc-15" vertex="1">
          <mxGeometry x="44" y="226" width="60" height="30" as="geometry" />
        </mxCell>
        <mxCell id="EWtLF_SIJgmkEhDglYgc-2" value="&lt;font style=&quot;font-size: 17px;&quot;&gt;v&lt;sub&gt;1&lt;/sub&gt;&lt;/font&gt;" style="text;html=1;align=center;verticalAlign=middle;resizable=0;points=[];autosize=1;strokeColor=none;fillColor=none;" vertex="1" parent="EWtLF_SIJgmkEhDglYgc-15">
          <mxGeometry width="40" height="40" as="geometry" />
        </mxCell>
        <mxCell id="EWtLF_SIJgmkEhDglYgc-8" value="&lt;font style=&quot;font-size: 17px;&quot;&gt;v&lt;/font&gt;&lt;font style=&quot;font-size: 14.1667px;&quot;&gt;&lt;sub&gt;3&lt;/sub&gt;&lt;/font&gt;" style="text;html=1;align=center;verticalAlign=middle;resizable=0;points=[];autosize=1;strokeColor=none;fillColor=none;" vertex="1" parent="EWtLF_SIJgmkEhDglYgc-15">
          <mxGeometry x="160" y="96" width="40" height="40" as="geometry" />
        </mxCell>
        <mxCell id="EWtLF_SIJgmkEhDglYgc-14" value="" style="group" vertex="1" connectable="0" parent="1">
          <mxGeometry x="582" y="55" width="180" height="265" as="geometry" />
        </mxCell>
        <mxCell id="4vt4gDCJGikrpxqC6eB1-26" value="" style="group" parent="EWtLF_SIJgmkEhDglYgc-14" vertex="1" connectable="0">
          <mxGeometry x="30" y="35" width="150" height="180" as="geometry" />
        </mxCell>
        <mxCell id="4vt4gDCJGikrpxqC6eB1-33" value="" style="ellipse;whiteSpace=wrap;html=1;aspect=fixed;fillColor=none;" parent="4vt4gDCJGikrpxqC6eB1-26" vertex="1">
          <mxGeometry x="-39" y="-3" width="175" height="175" as="geometry" />
        </mxCell>
        <mxCell id="4vt4gDCJGikrpxqC6eB1-27" value="" style="endArrow=none;html=1;rounded=0;exitX=0.19;exitY=0.896;exitDx=0;exitDy=0;exitPerimeter=0;startArrow=oval;startFill=1;entryX=0.197;entryY=0.108;entryDx=0;entryDy=0;entryPerimeter=0;" parent="4vt4gDCJGikrpxqC6eB1-26" edge="1">
          <mxGeometry width="50" height="50" relative="1" as="geometry">
            <mxPoint x="2" y="159" as="sourcePoint" />
            <mxPoint x="3" y="10" as="targetPoint" />
          </mxGeometry>
        </mxCell>
        <mxCell id="4vt4gDCJGikrpxqC6eB1-28" value="&lt;font style=&quot;font-size: 17px;&quot;&gt;e&lt;/font&gt;" style="edgeLabel;html=1;align=center;verticalAlign=middle;resizable=0;points=[];" parent="4vt4gDCJGikrpxqC6eB1-27" vertex="1" connectable="0">
          <mxGeometry x="0.0389" relative="1" as="geometry">
            <mxPoint x="58" y="-23" as="offset" />
          </mxGeometry>
        </mxCell>
        <mxCell id="4vt4gDCJGikrpxqC6eB1-29" value="" style="endArrow=oval;html=1;rounded=0;entryX=0.735;entryY=0.057;entryDx=0;entryDy=0;entryPerimeter=0;startArrow=oval;startFill=1;endFill=1;exitX=0.196;exitY=0.105;exitDx=0;exitDy=0;exitPerimeter=0;" parent="4vt4gDCJGikrpxqC6eB1-26" edge="1">
          <mxGeometry width="50" height="50" relative="1" as="geometry">
            <mxPoint x="3" y="9" as="sourcePoint" />
            <mxPoint x="106" as="targetPoint" />
          </mxGeometry>
        </mxCell>
        <mxCell id="4vt4gDCJGikrpxqC6eB1-30" value="" style="endArrow=none;html=1;rounded=0;entryX=0.732;entryY=0.062;entryDx=0;entryDy=0;entryPerimeter=0;" parent="4vt4gDCJGikrpxqC6eB1-26" edge="1">
          <mxGeometry width="50" height="50" relative="1" as="geometry">
            <mxPoint x="136" y="89" as="sourcePoint" />
            <mxPoint x="105" y="1" as="targetPoint" />
          </mxGeometry>
        </mxCell>
        <mxCell id="4vt4gDCJGikrpxqC6eB1-31" value="" style="endArrow=none;html=1;rounded=0;startArrow=oval;startFill=1;" parent="4vt4gDCJGikrpxqC6eB1-26" edge="1">
          <mxGeometry width="50" height="50" relative="1" as="geometry">
            <mxPoint x="136" y="89" as="sourcePoint" />
            <mxPoint y="160" as="targetPoint" />
          </mxGeometry>
        </mxCell>
        <mxCell id="4vt4gDCJGikrpxqC6eB1-32" value="" style="endArrow=none;html=1;rounded=0;dashed=1;" parent="4vt4gDCJGikrpxqC6eB1-26" edge="1">
          <mxGeometry width="50" height="50" relative="1" as="geometry">
            <mxPoint y="9" as="sourcePoint" />
            <mxPoint x="136" y="89" as="targetPoint" />
          </mxGeometry>
        </mxCell>
        <mxCell id="4vt4gDCJGikrpxqC6eB1-44" value="&lt;font style=&quot;font-size: 24px;&quot;&gt;(c)&lt;/font&gt;" style="text;html=1;align=center;verticalAlign=middle;whiteSpace=wrap;rounded=0;" parent="EWtLF_SIJgmkEhDglYgc-14" vertex="1">
          <mxGeometry x="50" y="235" width="60" height="30" as="geometry" />
        </mxCell>
        <mxCell id="EWtLF_SIJgmkEhDglYgc-3" value="&lt;font style=&quot;font-size: 17px;&quot;&gt;v&lt;sub&gt;1&lt;/sub&gt;&lt;/font&gt;" style="text;html=1;align=center;verticalAlign=middle;resizable=0;points=[];autosize=1;strokeColor=none;fillColor=none;" vertex="1" parent="EWtLF_SIJgmkEhDglYgc-14">
          <mxGeometry y="9" width="40" height="40" as="geometry" />
        </mxCell>
        <mxCell id="EWtLF_SIJgmkEhDglYgc-6" value="&lt;font style=&quot;font-size: 17px;&quot;&gt;v&lt;/font&gt;&lt;font style=&quot;font-size: 14.1667px;&quot;&gt;&lt;sub&gt;2&lt;/sub&gt;&lt;/font&gt;" style="text;html=1;align=center;verticalAlign=middle;resizable=0;points=[];autosize=1;strokeColor=none;fillColor=none;" vertex="1" parent="EWtLF_SIJgmkEhDglYgc-14">
          <mxGeometry x="127" width="40" height="40" as="geometry" />
        </mxCell>
        <mxCell id="EWtLF_SIJgmkEhDglYgc-12" value="&lt;font style=&quot;font-size: 17px;&quot;&gt;v&lt;/font&gt;&lt;font style=&quot;font-size: 14.1667px;&quot;&gt;&lt;sub&gt;4&lt;/sub&gt;&lt;/font&gt;" style="text;html=1;align=center;verticalAlign=middle;resizable=0;points=[];autosize=1;strokeColor=none;fillColor=none;" vertex="1" parent="EWtLF_SIJgmkEhDglYgc-14">
          <mxGeometry y="185" width="40" height="40" as="geometry" />
        </mxCell>
      </root>
    </mxGraphModel>
  </diagram>
</mxfile>
